# xmcd
#
# Track frame offsets:
#	150
#	18680
#	38009
#	54099
#	74488
#	90727
#	102940
#	118327
#	127094
#	145373
#	156724
#	176480
#	189257
#	202508
#	217813
#
# Disc length: 3077 seconds
#
# Revision: 2
# Processed by: cddbd v1.5.2PL0 Copyright (c) Steve Scherf et al.
# Submitted via: EasyCDDAExtractor 12.0.1.1
#
DISCID=d50c030f
DTITLE=Bobby Bare - I Love Country
DYEAR=2000
DGENRE=Country
TTITLE0=Numbers
TTITLE1=Tequila Sheila
TTITLE2=The Gambler
TTITLE3=Let Him Roll
TTITLE4=Goin' Up's Easy, Com'n Down's Hard
TTITLE5=Praise The Lord And Send Me My Money
TTITLE6=Good Night Irene
TTITLE7=I've Never Gone To Bed With An Ugly Wuman
TTITLE8=The Jogger
TTITLE9=Food Blues
TTITLE10=Desperados Waiting For The
TTITLE11=Three Legged Man
TTITLE12=Finger on The Button
TTITLE13=The Last Time.
TTITLE14=Greasy Grit Gravy
EXTD=
EXTT0=
EXTT1=
EXTT2=
EXTT3=
EXTT4=
EXTT5=
EXTT6=
EXTT7=
EXTT8=
EXTT9=
EXTT10=
EXTT11=
EXTT12=
EXTT13=
EXTT14=
PLAYORDER=
